<svg class="sprite-icons" xmlns="http://www.w3.org/2000/svg" role="img" aria-hidden="true" focusable="false"><defs><svg xmlns="http://www.w3.org/2000/svg" width="527" height="20" viewBox="0 0 527 20"><g transform="translate(0, 0)"><rect x="0" y="0" width="58" height="20" fill="#6c757d"/><rect x="58" y="0" width="31" height="20" fill="#007acc"/><text x="29" y="14" text-anchor="middle" font-family="sans-serif" font-size="11" fill="#fff">License</text><text x="73" y="14" text-anchor="middle" font-family="sans-serif" font-size="11" fill="#fff">MIT</text></g><g transform="translate(94, 0)"><rect x="0" y="0" width="25" height="20" fill="#6c757d"/><rect x="25" y="0" width="51" height="20" fill="#007acc"/><text x="12" y="14" text-anchor="middle" font-family="sans-serif" font-size="11" fill="#fff">Go</text><text x="50" y="14" text-anchor="middle" font-family="sans-serif" font-size="11" fill="#fff">1.25.2</text></g><g transform="translate(175, 0)"><rect x="0" y="0" width="45" height="20" fill="#6c757d"/><rect x="45" y="0" width="58" height="20" fill="#4c1"/><text x="22" y="14" text-anchor="middle" font-family="sans-serif" font-size="11" fill="#fff">Tests</text><text x="74" y="14" text-anchor="middle" font-family="sans-serif" font-size="11" fill="#fff">Passing</text></g><g transform="translate(283, 0)"><rect x="0" y="0" width="64" height="20" fill="#6c757d"/><rect x="64" y="0" width="31" height="20" fill="#4c1"/><text x="32" y="14" text-anchor="middle" font-family="sans-serif" font-size="11" fill="#fff">Coverage</text><text x="79" y="14" text-anchor="middle" font-family="sans-serif" font-size="11" fill="#fff">86%</text></g><g transform="translate(383, 0)"><rect x="0" y="0" width="38" height="20" fill="#6c757d"/><rect x="38" y="0" width="45" height="20" fill="#4c1"/><text x="19" y="14" text-anchor="middle" font-family="sans-serif" font-size="11" fill="#fff">Race</text><text x="60" y="14" text-anchor="middle" font-family="sans-serif" font-size="11" fill="#fff">Clean</text></g><g transform="translate(471, 0)"><rect x="0" y="0" width="31" height="20" fill="#6c757d"/><rect x="31" y="0" width="25" height="20" fill="#4c1"/><text x="15" y="14" text-anchor="middle" font-family="sans-serif" font-size="11" fill="#fff">Vet</text><text x="43" y="14" text-anchor="middle" font-family="sans-serif" font-size="11" fill="#fff">OK</text></g></svg><svg xmlns="http://www.w3.org/2000/svg" viewBox="0 0 100 100"><rect width="100" height="100" fill="#00ADD8"/><text x="50" y="70" font-size="60" text-anchor="middle" fill="#fff" font-family="Arial, sans-serif" font-weight="bold">GO</text></svg><symbol id="icon-record" viewBox="0 0 16 16"><path fill="currentColor" d="m13.69 2.75H9.752c0-.9669-.7831-1.75-1.75-1.75s-1.75.7831-1.75 1.75H2.314c-.2415.0-.4375.196-.4375.4375v11.38c0 .2415.196.4375.4375.4375h11.38c.2415.0.4375-.196.4375-.4375v-11.38c0-.2415-.196-.4375-.4375-.4375zm-5.688-.875c.483.0.875.392.875.875s-.392.875-.875.875-.875-.392-.875-.875.392-.875.875-.875zm5.25 12.25h-10.5v-10.5h1.75v1.312c0 .2415.196.4375.4375.4375h6.125c.2415.0.4375-.196.4375-.4375V3.625h1.75z"/><path fill="currentColor" d="m10.65 5.892c-.5089.0-.922.4131-.922.922s.4131.922.922.922.922-.4131.922-.922-.4131-.922-.922-.922zm0 1.844h-.6147c-.5071.0-.922.2766-.922.6147v.6147h3.073v-.6147c0-.3381-.4149-.6147-.922-.6147z"/><path fill="currentColor" d="m4.251 11.72h6.125v.875H4.251z"/><path fill="currentColor" d="m4.251 9.975h6.125v.875H4.251z"/>`</symbol><svg class="sprite-icons" xmlns="http://www.w3.org/2000/svg" role="img" aria-hidden="true" focusable="false"><defs/></svg><svg class="sprite-icons" xmlns="http://www.w3.org/2000/svg" role="img" aria-hidden="true" focusable="false"><defs><symbol id="icon-home" viewBox="0 0 576 512"><path fill="currentColor" d="M280.37 148.26 96 300.11V464a16 16 0 0016 16l112.06-.29a16 16 0 0015.92-16V368a16 16 0 0116-16h64a16 16 0 0116 16v95.64a16 16 0 0016 16.05L464 480a16 16 0 0016-16V3e2L295.67 148.26a12.19 12.19.0 00-15.3.0zM571.6 251.47 488 182.56V44.05a12 12 0 00-12-12h-56a12 12 0 00-12 12v72.61L318.47 43a48 48 0 00-61 0L4.34 251.47a12 12 0 00-1.6 16.9l25.5 31A12 12 0 0045.15 301l235.22-193.74a12.19 12.19.0 0115.3.0L530.9 301a12 12 0 0016.9-1.6l25.5-31a12 12 0 00-1.7-16.93z"/></symbol><symbol id="icon-btn-delete" viewBox="0 0 16 16"><path fill="currentColor" d="M0 6.5v3c0 .276.224.5.5.5h15c.276.0.5-.224.5-.5v-3c0-.276-.224-.5-.5-.5H.5c-.276.0-.5.224-.5.5z"/></symbol><symbol id="icon-btn-cancel" viewBox="0 0 16 16"><path fill="currentColor" d="M8 1c-2.209.0-4.209.896-5.657 2.343L0 1v6h6L3.757 4.757C4.843 3.671 6.343 3 8 3c3.314.0 6 2.686 6 6 0 1.792-.786 3.401-2.032 4.5l1.323 1.5C14.952 13.534 16 11.389 16 9c0-4.418-3.582-8-8-8z"/></symbol><symbol id="icon-btn-new" viewBox="0 0 16 16"><path fill="currentColor" d="M15.5 6H10V.5c0-.276-.224-.5-.5-.5h-3c-.276.0-.5.224-.5.5V6H.5c-.276.0-.5.224-.5.5v3c0 .276.224.5.5.5H6v5.5c0 .276.224.5.5.5h3c.276.0.5-.224.5-.5V10h5.5c.276.0.5-.224.5-.5v-3c0-.276-.224-.5-.5-.5z"/></symbol><symbol id="icon-btn-save" viewBox="0 0 16 16"><path fill="currentColor" d="M14 0H0v16h16V2l-2-2zM8 2h2v4H8V2zm6 12H2V2h1v5h9V2h1.172l.828.828V14z"/></symbol><symbol id="icon-search" viewBox="0 0 16 16"><path fill="currentColor" d="M15.504 13.616l-3.79-3.223c-.392-.353-.811-.514-1.149-.499C11.46 8.846 12 7.487 12 6.001c0-3.314-2.686-6-6-6s-6 2.686-6 6 2.686 6 6 6c1.486.0 2.845-.54 3.893-1.435-.016.338.146.757.499 1.149l3.223 3.79c.552.613 1.453.665 2.003.115s.498-1.452-.115-2.003zM6 10c-2.209.0-4-1.791-4-4s1.791-4 4-4 4 1.791 4 4-1.791 4-4 4z"/></symbol><symbol id="icon-printer" viewBox="0 0 16 16"><path fill="currentColor" d="M6.4980471-.64999999e-7 5.4375001.86699507l-1.0625.86918443V2.8002196v.8691838H1.0000005C.45000043 3.6694034 435e-9 4.1738369 435e-9 4.7903667v5.6048163c0 .61653.449999995 1.120963 1.000000065 1.120963H4.0000001V16H12v-4.483854h3c.55.0 1-.504433 1-1.120963V4.7903667C16 4.1738369 15.55 3.6694034 15 3.6694034H11.75V1.9310345-.64999999e-7H9.1250001zM2.0000005 4.7903667c.552.0 1 .5021916 1 1.1209634s-.448 1.1209634-1 1.1209634-1-.5021916-1-1.1209634.448-1.1209634 1-1.1209634zM5.0000001 9.2742202H11V14.879037H5.0000001z"/></symbol><symbol id="icon-key" viewBox="0 0 16 16"><path fill="currentColor" d="m1.1 5.2c1.6-1.6 4.1-1.6 5.6.0.18.18.33.36.47.56h6.8l1.7 1.7c.31.31.31.81.0 1.1l-.56.56-.56-.56-1.1 1.1-1.1-1.1-1.1 1.1-1.1-1.1-1.1 1.1h-1.5c-.19.41-.45.79-.79 1.1-1.6 1.6-4.1 1.6-5.6.0-1.6-1.6-1.6-4.1.0-5.6zm2 3.6c.47-.46.47-1.2.0-1.7-.47-.46-1.2-.46-1.7.0-.47.46-.47 1.2.0 1.7.47.46 1.2.46 1.7.0z"/></symbol>{{.SpriteIcons}}</defs></svg></defs></svg>